<?xml version="1.0" encoding="UTF-8" standalone="no"?>
<!-- Created with Inkscape (http://www.inkscape.org/) -->

<svg
   width="46.009563mm"
   height="36.3032mm"
   viewBox="0 0 173.89442 137.20895"
   version="1.1"
   id="svg213"
   sodipodi:docname="flowcore-logo-25jan2024-textbelow-transparent.svg"
   inkscape:version="1.2.2 (b0a8486, 2022-12-01)"
   xmlns:inkscape="http://www.inkscape.org/namespaces/inkscape"
   xmlns:sodipodi="http://sodipodi.sourceforge.net/DTD/sodipodi-0.dtd"
   xmlns:xlink="http://www.w3.org/1999/xlink"
   xmlns="http://www.w3.org/2000/svg"
   xmlns:svg="http://www.w3.org/2000/svg">
  <sodipodi:namedview
     id="namedview25"
     pagecolor="#ffffff"
     bordercolor="#000000"
     borderopacity="0.25"
     inkscape:showpageshadow="2"
     inkscape:pageopacity="0.0"
     inkscape:pagecheckerboard="0"
     inkscape:deskcolor="#d1d1d1"
     inkscape:document-units="mm"
     showgrid="false"
     inkscape:zoom="1.0289025"
     inkscape:cx="164.73864"
     inkscape:cy="383.41824"
     inkscape:window-width="1390"
     inkscape:window-height="1205"
     inkscape:window-x="0"
     inkscape:window-y="25"
     inkscape:window-maximized="0"
     inkscape:current-layer="svg213" />
  <defs
     id="defs210">
    <linearGradient
       id="linearGradient2476">
      <stop
         style="stop-color:#ffcc00;stop-opacity:1;"
         offset="0"
         id="stop2472" />
      <stop
         style="stop-color:#ff00ff;stop-opacity:1;"
         offset="1"
         id="stop2474" />
    </linearGradient>
    <linearGradient
       id="linearGradient310">
      <stop
         style="stop-color:#ff00ff;stop-opacity:1"
         offset="0"
         id="stop306" />
      <stop
         style="stop-color:#ffcc00;stop-opacity:1"
         offset="1"
         id="stop308" />
    </linearGradient>
    <linearGradient
       xlink:href="#linearGradient310"
       id="linearGradient312"
       x1="350.55383"
       y1="37.98777"
       x2="68.644569"
       y2="387.20868"
       gradientUnits="userSpaceOnUse" />
    <linearGradient
       xlink:href="#linearGradient2476"
       id="linearGradient2478"
       x1="159.94852"
       y1="473.18103"
       x2="445.19003"
       y2="124.62655"
       gradientUnits="userSpaceOnUse" />
  </defs>
  <g
     id="layer1"
     transform="matrix(0.49699928,0,0,0.49699928,-498.01893,-54.872396)">
    <g
       id="g9833"
       transform="matrix(0.41387617,0,0,0.43712634,1071.0437,96.349296)">
      <path
         style="display:inline;fill:url(#linearGradient2478);fill-opacity:1;stroke-width:11.8472"
         d="m 160.6052,473.82793 c 47.25795,-0.003 98.85453,-25.77016 115.70962,-64.73356 11.02574,-22.35552 6.61171,-45.18521 9.54118,-67.8374 0.5323,-7.71377 1.06454,-15.42759 1.59683,-23.14137 36.03206,-14.54391 62.32069,-48.62506 54.78593,-79.44011 -4.32514,-21.89689 -21.27758,-41.06162 -45.88008,-49.56133 1.97204,-20.00774 1.40749,-40.03972 5.48622,-60.02486 10.74563,-25.88642 50.14507,-38.144459 78.95187,-34.446047 54.66341,8.653127 87.48216,48.658107 102.94086,89.469477 23.76047,60.31916 13.2021,132.90166 -33.51945,191.69049 -36.56614,46.14625 -94.03868,85.03529 -158.74951,96.92283 -43.95498,9.07841 -89.30601,9.4913 -130.86347,1.10188 z"
         id="path3974" />
      <path
         style="display:inline;fill:url(#linearGradient312);fill-opacity:1;stroke-width:11.8472"
         d="M 28.19591,196.02051 C 52.12951,130.10406 116.67878,69.81543 196.65104,45.03624 248.31599,30.6062 303.45008,28.04958 352.85325,38.66077 305.18744,38.22715 252.72683,64.02853 235.69252,103.4216 c -11.03868,22.37801 -6.60604,45.23111 -9.54564,67.90669 -0.52214,7.56288 -1.0443,15.1258 -1.56645,22.68873 -35.94879,14.56349 -62.15245,48.58046 -54.65408,79.34515 4.3065,21.87452 21.21194,41.02557 45.75972,49.55331 -1.63069,19.10184 -1.95655,38.19414 -4.56524,57.3001 -7.37838,26.68239 -46.74619,40.15499 -75.75263,38.23081 C 81.4172,411.84197 47.38818,374.09132 30.84708,334.78648 12.85551,291.93181 10.31723,242.75939 28.19591,196.02051 Z"
         id="circle11937" />
    </g>
    <g
       aria-label="FLOWCORE"
       id="text230"
       style="font-size:240px;fill:#ffffff;stroke-width:1.06492"
       transform="matrix(0.31338581,0,0,0.33099078,928.26139,73.863566)">
      <path
         d="m 235.46128,804.57329 h 98.16 v 29.76 h -54.96 v 27.12 h 45.36 v 26.16 h -45.36 v 53.76 h -43.2 z"
         style="font-family:Lalezar;-inkscape-font-specification:Lalezar;fill:#ffffff"
         id="path980" />
      <path
         d="m 347.78093,804.57329 h 43.2 v 105.12 h 55.92 v 31.68 h -99.12 z"
         style="font-family:Lalezar;-inkscape-font-specification:Lalezar;fill:#ffffff"
         id="path982" />
      <path
         d="m 529.22089,944.49329 q -35.76,0 -53.76,-16.8 -17.76,-17.04 -17.76,-54.48 0,-36.72 19.68,-53.52 19.68,-16.8 52.08,-16.8 68.16,0 68.16,67.92 0,34.32 -16.8,54 -16.56,19.68 -51.6,19.68 z m -0.96,-28.32 q 6.72,0 11.28,-2.16 4.56,-2.4 7.2,-8.16 5.04,-9.84 5.04,-32.16 0,-21.84 -5.04,-31.68 -5.04,-10.08 -18.48,-10.56 -5.04,0 -10.56,1.2 -5.28,0.96 -6.72,2.88 -2.88,3.36 -4.56,14.4 -1.44,10.8 -1.44,23.76 0,20.16 3.84,29.52 2.64,6.96 7.44,10.08 4.8,2.88 12,2.88 z"
         style="font-family:Lalezar;-inkscape-font-specification:Lalezar;fill:#ffffff"
         id="path984" />
      <path
         d="m 697.4608,941.37329 h -54 l -35.28,-136.8 h 46.08 l 18.24,100.56 h 1.2 l 19.44,-100.56 h 45.12 l 19.92,100.56 h 0.72 l 18.48,-100.56 h 44.16 l -35.28,136.8 h -53.76 l -16.32,-87.36 h -1.44 z"
         style="font-family:Lalezar;-inkscape-font-specification:Lalezar;fill:#ffffff"
         id="path986" />
      <path
         d="m 944.18076,936.81329 q -8.88,3.84 -20.64,5.52 -11.76,1.68 -21.84,1.68 -32.64,0 -51.12,-17.04 -18.48,-17.04 -18.48,-52.32 0,-36 19.44,-53.76 19.44,-18 54.72,-18 16.8,0 35.04,4.56 0,4.8 -0.96,14.4 -0.96,9.36 -1.92,13.2 h -15.12 q -16.56,0 -26.16,0.72 -9.36,0.48 -11.28,2.16 -3.6,3.36 -5.52,13.68 -1.92,10.08 -1.92,19.44 0,16.32 4.08,25.2 4.08,8.64 10.32,11.52 6,2.88 19.92,2.88 11.04,0 28.8,-1.92 z"
         style="font-family:Lalezar;-inkscape-font-specification:Lalezar;fill:#ffffff"
         id="path988" />
      <path
         d="m 1026.7404,944.49329 q -35.76001,0 -53.76001,-16.8 -17.76,-17.04 -17.76,-54.48 0,-36.72 19.68,-53.52 19.68,-16.8 52.08001,-16.8 68.16,0 68.16,67.92 0,34.32 -16.8,54 -16.56,19.68 -51.6,19.68 z m -0.96,-28.32 q 6.72,0 11.28,-2.16 4.56,-2.4 7.2,-8.16 5.04,-9.84 5.04,-32.16 0,-21.84 -5.04,-31.68 -5.04,-10.08 -18.48,-10.56 -5.04,0 -10.56,1.2 -5.28,0.96 -6.72,2.88 -2.88,3.36 -4.56,14.4 -1.44,10.8 -1.44,23.76 0,20.16 3.84,29.52 2.64,6.96 7.44,10.08 4.8,2.88 12,2.88 z"
         style="font-family:Lalezar;-inkscape-font-specification:Lalezar;fill:#ffffff"
         id="path990" />
      <path
         d="m 1238.9003,941.37329 h -45.36 l -8.16,-34.56 q -0.48,-1.92 -1.68,-6.48 -0.96,-4.8 -2.4,-6.96 -1.44,-2.4 -4.08,-3.12 -6.72,0.24 -19.68,0.24 v 50.88 h -43.2 v -135.6 q 29.04,-2.16 54.24,-2.16 22.8,0 36.96,3.84 14.16,3.6 21.12,12.72 7.2,8.88 7.2,24.48 0,14.64 -6.72,23.04 -6.72,8.16 -21.6,9.84 v 1.44 q 8.4,0.72 13.92,5.52 5.76,4.56 7.68,11.76 z m -81.36,-78 q 2.16,0.24 8.4,0.24 18.48,0 21.6,-3.12 2.88,-2.88 2.88,-13.44 0,-9.84 -5.28,-13.44 -5.04,-3.6 -16.8,-3.6 -2.64,0 -10.8,0.48 z"
         style="font-family:Lalezar;-inkscape-font-specification:Lalezar;fill:#ffffff"
         id="path992" />
      <path
         d="m 1252.3403,804.57329 h 99.6 v 28.8 h -56.4 v 24.96 h 47.52 v 25.92 h -47.52 v 27.84 h 56.16 v 29.28 h -99.36 z"
         style="font-family:Lalezar;-inkscape-font-specification:Lalezar;fill:#ffffff"
         id="path994" />
    </g>
  </g>
</svg>
