<svg id="logo" width="100%" height="100%" fill="currentColor" version="1.1" xmlns="http://www.w3.org/2000/svg" viewBox="0 0 110.51 22.61"><path d="m21.31,6.96V.54H0v3.23h5.65v-.68h3.82v3.82h-.79v15.16h6.37v-.38l-.67-.03c-1.56-.06-1.85-.45-1.85-4.82V5.72c0-4.31.1-4.76,1.5-4.76h.7c1.6,0,4.5.51,5.94,4.92l.35,1.09h.29Z"></path><path d="m26.05,11.3c0,2.55.73,4.54,2.19,5.97,1.46,1.43,3.49,2.14,6.1,2.14s4.64-.71,6.07-2.14c1.44-1.43,2.16-3.42,2.16-5.97s-.73-4.54-2.19-5.97c-1.46-1.43-3.49-2.14-6.1-2.14s-4.64.71-6.07,2.14c-1.44,1.43-2.16,3.42-2.16,5.97m-3.95,0c0-2.33.51-4.35,1.52-6.06,1.01-1.71,2.44-3.01,4.28-3.9,1.84-.89,3.96-1.34,6.38-1.34,2.07,0,3.92.33,5.54.97v1.98h3.26c.79.7,1.45,1.51,1.98,2.43.98,1.7,1.46,3.67,1.46,5.92s-.51,4.35-1.52,6.06c-1.01,1.71-2.44,3.01-4.28,3.9-1.84.89-3.96,1.34-6.38,1.34s-4.69-.47-6.54-1.42c-1.85-.94-3.26-2.27-4.24-3.96-.97-1.7-1.46-3.67-1.46-5.92"></path><path d="m83.38,22.07v-.38l-.66-.03c-1.55-.06-1.84-.45-1.84-4.82V5.78s0-.04,0-.06v-3.04h-1.87V.54h-1.96v5.18s0,.04,0,.06v11.05c0,4.38-.28,4.76-1.84,4.82l-.66.03v.38h8.83Z"></path><polygon points="71.44 21.92 71.44 .4 67.74 .4 67.74 16.64 54.26 .4 50.7 .4 50.7 21.92 54.41 21.92 54.41 5.67 66.37 20.09 68.54 20.09 68.54 21.92 71.44 21.92"></polygon><polygon points="90.31 20.09 90.31 14.17 90.31 10.34 90.31 .54 86.49 .54 86.49 22.07 89.57 22.07 89.57 20.09 90.31 20.09"></polygon><path d="m110.51,2.6V.49l-4.49-.03v2.13c0,6.03-14.98,2.22-14.98,6.58,0,2.92,7.42,1.43,11.28,3.96,4.47,2.92,3.57,8.68,3.57,8.68h4.53s.66-6.76-4.99-9.32c-4.7-2.13-13.83-.64-13.83-3.32,0-4.36,18.91.49,18.91-6.58"></path></svg>